<svg width="24" height="24" viewBox="0 0 24 24" fill="none" xmlns="http://www.w3.org/2000/svg">
<g clip-path="url(#clip0_6194_3577)">
<path d="M19.2827 12.5803C20.1044 12.9201 20.1042 14.0796 19.2825 14.4192C17.2827 15.2456 14.5301 16.3761 13.6874 16.6875C13.3753 17.5354 12.2483 20.2856 11.4238 22.2844C11.0847 23.1065 9.92482 23.1072 9.58478 22.2854C8.75767 20.2864 7.62645 17.5354 7.31241 16.6875C6.46447 16.3754 3.71431 15.2483 1.71555 14.4239C0.89337 14.0848 0.892748 12.9249 1.71455 12.5849C3.71348 11.7578 6.46455 10.6265 7.31241 10.3125C7.62451 9.46456 8.75156 6.71441 9.57596 4.71565C9.91508 3.89347 11.075 3.89284 11.415 4.71464C12.2421 6.71358 13.3734 9.46465 13.6874 10.3125C14.5302 10.6227 17.2829 11.7535 19.2827 12.5803ZM14.2499 4.5H15.7499V6C15.7499 6.19891 15.8289 6.38968 15.9696 6.53033C16.1102 6.67098 16.301 6.75 16.4999 6.75C16.6988 6.75 16.8896 6.67098 17.0302 6.53033C17.1709 6.38968 17.2499 6.19891 17.2499 6V4.5H18.7499C18.9488 4.5 19.1396 4.42098 19.2802 4.28033C19.4209 4.13968 19.4999 3.94891 19.4999 3.75C19.4999 3.55109 19.4209 3.36032 19.2802 3.21967C19.1396 3.07902 18.9488 3 18.7499 3H17.2499V1.5C17.2499 1.30109 17.1709 1.11032 17.0302 0.96967C16.8896 0.829018 16.6988 0.75 16.4999 0.75C16.301 0.75 16.1102 0.829018 15.9696 0.96967C15.8289 1.11032 15.7499 1.30109 15.7499 1.5V3H14.2499C14.051 3 13.8602 3.07902 13.7196 3.21967C13.5789 3.36032 13.4999 3.55109 13.4999 3.75C13.4999 3.94891 13.5789 4.13968 13.7196 4.28033C13.8602 4.42098 14.051 4.5 14.2499 4.5ZM22.4999 7.5H21.7499V6.75C21.7499 6.55109 21.6709 6.36032 21.5302 6.21967C21.3896 6.07902 21.1988 6 20.9999 6C20.801 6 20.6102 6.07902 20.4696 6.21967C20.3289 6.36032 20.2499 6.55109 20.2499 6.75V7.5H19.4999C19.301 7.5 19.1102 7.57902 18.9696 7.71967C18.8289 7.86032 18.7499 8.05109 18.7499 8.25C18.7499 8.44891 18.8289 8.63968 18.9696 8.78033C19.1102 8.92098 19.301 9 19.4999 9H20.2499V9.75C20.2499 9.94891 20.3289 10.1397 20.4696 10.2803C20.6102 10.421 20.801 10.5 20.9999 10.5C21.1988 10.5 21.3896 10.421 21.5302 10.2803C21.6709 10.1397 21.7499 9.94891 21.7499 9.75V9H22.4999C22.6988 9 22.8896 8.92098 23.0302 8.78033C23.1709 8.63968 23.2499 8.44891 23.2499 8.25C23.2499 8.05109 23.1709 7.86032 23.0302 7.71967C22.8896 7.57902 22.6988 7.5 22.4999 7.5Z" fill="black"/>
</g>
<defs>
<clipPath id="clip0_6194_3577">
<rect width="24" height="24" fill="white"/>
</clipPath>
</defs>
</svg>
